<svg xmlns="http://www.w3.org/2000/svg" viewBox="0 0 154.55 80.17"><defs><style>.cls-1{fill:#2d2439;}.cls-2{fill:#434152;}.cls-3{font-size:12.51px;fill:#dedddc;font-family:Futura-Medium, Futura;font-weight:500;}.cls-4{letter-spacing:0.01em;}.cls-5{letter-spacing:0.01em;}</style></defs><title>Boatel_Logo</title><g id="Layer_2" data-name="Layer 2"><g id="Layer_1-2" data-name="Layer 1"><path class="cls-1" d="M0,36.45V2.15H5.15a22.28,22.28,0,0,1,5.49.54,8,8,0,0,1,3.48,1.8,9.18,9.18,0,0,1,2.29,3.26,9.85,9.85,0,0,1,.87,4A8.09,8.09,0,0,1,14.46,18a8.3,8.3,0,0,1,4.31,3.26,9.28,9.28,0,0,1,1.6,5.38,9.11,9.11,0,0,1-2.85,6.79,9.2,9.2,0,0,1-3.84,2.38,22.26,22.26,0,0,1-5.84.65ZM5.17,16.88H6.8A6,6,0,0,0,11,15.6a5,5,0,0,0,1.34-3.76A4.72,4.72,0,0,0,11,8.16,5.75,5.75,0,0,0,7,6.91H5.17Zm0,14.7h3.2q3.51,0,5.16-1.38a4.77,4.77,0,0,0,1.73-3.77,4.83,4.83,0,0,0-1.67-3.73Q12,21.22,7.8,21.21H5.17Z"/><path class="cls-1" d="M80,28.12H65.32L61.5,36.45H55.92L72.89,0,89.26,36.45H83.59Zm-2.11-4.87L72.8,11.59,67.47,23.25Z"/><path class="cls-1" d="M101.1,7V36.45H95.92V7H88V2.15H109V7Z"/><path class="cls-1" d="M132.5,7H118.75v8.24H132.1v4.86H118.75V31.58H132.5v4.87H113.58V2.15H132.5Z"/><path class="cls-1" d="M144.47,2.15V31.58h10.08v4.87H139.29V2.15Z"/><path class="cls-2" d="M47.23,13.25l6.33-6.33a17.06,17.06,0,0,1,4,11.54,16.59,16.59,0,0,1-4.13,11.15l-6.23-6.23a8.94,8.94,0,0,0,1.43-5A9.09,9.09,0,0,0,47.23,13.25Z"/><path class="cls-2" d="M28.2,4.42a17.61,17.61,0,0,1,11.48-4,17.44,17.44,0,0,1,11.14,4l-6.24,6.24.17.13a8.47,8.47,0,0,0-5.17-1.71,8.77,8.77,0,0,0-5.36,1.7l.18-.14Z"/><path class="cls-2" d="M32.13,23.29,25.8,29.62a17.06,17.06,0,0,1-4-11.54A16.59,16.59,0,0,1,25.89,6.93l6.23,6.23a8.94,8.94,0,0,0-1.43,5A9.09,9.09,0,0,0,32.13,23.29Z"/><path class="cls-2" d="M51,32A17.61,17.61,0,0,1,39.5,36a17.44,17.44,0,0,1-11.14-4L34.6,25.8l-.17-.13a8.47,8.47,0,0,0,5.17,1.71A8.77,8.77,0,0,0,45,25.68l-.18.14Z"/><text class="cls-3" transform="translate(0.12 51.43)">a boat h<tspan class="cls-4" x="48.02" y="0">o</tspan><tspan class="cls-5" x="55.61" y="0">t</tspan><tspan x="59.14" y="0">el booking app</tspan></text></g></g></svg>